<?xml version="1.0" encoding="UTF-8" standalone="no"?>
<svg
   viewBox="0 0 800 600"
   version="1.1"
   id="svg40"
   sodipodi:docname="meta-governance-diagram.svg"
   inkscape:version="1.4.2 (ebf0e940d0, 2025-05-08)"
   xmlns:inkscape="http://www.inkscape.org/namespaces/inkscape"
   xmlns:sodipodi="http://sodipodi.sourceforge.net/DTD/sodipodi-0.dtd"
   xmlns="http://www.w3.org/2000/svg"
   xmlns:svg="http://www.w3.org/2000/svg">
  <sodipodi:namedview
     id="namedview40"
     pagecolor="#ffffff"
     bordercolor="#000000"
     borderopacity="0.25"
     inkscape:showpageshadow="2"
     inkscape:pageopacity="0.0"
     inkscape:pagecheckerboard="0"
     inkscape:deskcolor="#d1d1d1"
     inkscape:zoom="1.41"
     inkscape:cx="400.35461"
     inkscape:cy="300"
     inkscape:window-width="2520"
     inkscape:window-height="1048"
     inkscape:window-x="0"
     inkscape:window-y="0"
     inkscape:window-maximized="1"
     inkscape:current-layer="svg40" />
  <!-- Background with subtle grid -->
  <defs
     id="defs12">
    <pattern
       id="grid"
       width="20"
       height="20"
       patternUnits="userSpaceOnUse">
      <path
         d="M 20 0 L 0 0 0 20"
         fill="none"
         stroke="#f0f0f0"
         stroke-width="1"
         id="path1" />
    </pattern>
    <!-- Gradients -->
    <linearGradient
       id="blueGradient"
       x1="0%"
       y1="0%"
       x2="100%"
       y2="100%">
      <stop
         offset="0%"
         stop-color="#2B4B8C"
         stop-opacity="0.9"
         id="stop1" />
      <stop
         offset="100%"
         stop-color="#4B5CA5"
         stop-opacity="0.9"
         id="stop2" />
    </linearGradient>
    <linearGradient
       id="purpleGradient"
       x1="0%"
       y1="0%"
       x2="100%"
       y2="100%">
      <stop
         offset="0%"
         stop-color="#6B5CA5"
         stop-opacity="0.9"
         id="stop3" />
      <stop
         offset="100%"
         stop-color="#885CA5"
         stop-opacity="0.9"
         id="stop4" />
    </linearGradient>
    <linearGradient
       id="greenGradient"
       x1="0%"
       y1="0%"
       x2="100%"
       y2="100%">
      <stop
         offset="0%"
         stop-color="#2D5F2D"
         stop-opacity="0.9"
         id="stop5" />
      <stop
         offset="100%"
         stop-color="#3D7F3D"
         stop-opacity="0.9"
         id="stop6" />
    </linearGradient>
    <linearGradient
       id="goldGradient"
       x1="0%"
       y1="0%"
       x2="100%"
       y2="100%">
      <stop
         offset="0%"
         stop-color="#DAA520"
         stop-opacity="0.9"
         id="stop7" />
      <stop
         offset="100%"
         stop-color="#B8860B"
         stop-opacity="0.9"
         id="stop8" />
    </linearGradient>
    <!-- Drop shadow filter -->
    <filter
       id="shadow"
       x="-0.0090909091"
       y="-0.0090909091"
       width="1.0181818"
       height="1.0181818">
      <feDropShadow
         dx="3"
         dy="3"
         stdDeviation="5"
         flood-color="#00000044" />
    </filter>
    <!-- Glow filter for connectors -->
    <filter
       id="glow"
       x="-0.024090909"
       y="-0.042084909"
       width="1.0481818"
       height="1.0841484">
      <feGaussianBlur
         stdDeviation="4"
         result="blur"
         id="feGaussianBlur8" />
      <feComposite
         in="SourceGraphic"
         in2="blur"
         operator="over"
         id="feComposite8" />
    </filter>
    <!-- Icons as symbols -->
    <symbol
       id="peopleIcon"
       viewBox="0 0 24 24">
      <path
         d="M12 12c2.21 0 4-1.79 4-4s-1.79-4-4-4-4 1.79-4 4 1.79 4 4 4zm0 2c-2.67 0-8 1.34-8 4v2h16v-2c0-2.66-5.33-4-8-4z"
         fill="white"
         id="path8" />
    </symbol>
    <symbol
       id="councilIcon"
       viewBox="0 0 24 24">
      <path
         d="M12 2L2 8v12h20V8L12 2zm0 3.5L18 9v1h-2v7h-8V10H6V9l6-3.5z"
         fill="white"
         id="path9" />
    </symbol>
    <symbol
       id="auditIcon"
       viewBox="0 0 24 24">
      <path
         d="M12 2C6.48 2 2 6.48 2 12s4.48 10 10 10 10-4.48 10-10S17.52 2 12 2zm1 17h-2v-2h2v2zm1.17-6.83l-.9.9c-.72.72-1.17 1.56-1.17 2.83h-2c0-1.79.59-3.14 1.76-4.31l1.24-1.26c.37-.37.59-.88.59-1.43 0-1.1-.9-2-2-2s-2 .9-2 2H8c0-2.21 1.79-4 4-4s4 1.79 4 4c0 .88-.36 1.68-.93 2.27z"
         fill="white"
         id="path10" />
    </symbol>
    <symbol
       id="aiIcon"
       viewBox="0 0 24 24">
      <path
         d="M4 20h16v2h-16v-2zm0-19h3v13h-3v-13zm13 0h3v13h-3v-13zm-10 0h7v5h-7v-5zm0 8h7v5h-7v-5z"
         fill="white"
         id="path11" />
    </symbol>
    <symbol
       id="goalIcon"
       viewBox="0 0 24 24">
      <path
         d="M19.1 17.5L21 19.4l-1.4 1.4-1.9-1.9c-1.3 1-2.9 1.6-4.7 1.6-4.4 0-8-3.6-8-8s3.6-8 8-8 8 3.6 8 8c0 1.8-.6 3.4-1.6 4.7l-.3.3zM13 7h-2v5.4l3.7 2.2.7-1.1-2.4-1.5V7z"
         fill="white"
         id="path12" />
    </symbol>
  </defs>
  <!-- Background -->
  <rect
     width="100%"
     height="100%"
     fill="url(#grid)"
     id="rect12" />
  <!-- Central circle -->
  <circle
     cx="400"
     cy="300"
     r="180"
     fill="#f8f9fc"
     stroke="#e5e7eb"
     stroke-width="2"
     filter="url(#shadow)"
     id="circle12" />
  <!-- Core nodes -->
  <g
     id="citizenPanels"
     transform="translate(180,180)">
    <circle
       cx="0"
       cy="0"
       r="70"
       fill="url(#purpleGradient)"
       filter="url(#shadow)"
       id="circle13" />
    <text
       x="0"
       y="95"
       font-family="Arial, sans-serif"
       font-size="16"
       fill="#6B5CA5"
       text-anchor="middle"
       font-weight="bold"
       id="text13">Citizen Panels</text>
    <use
       href="#peopleIcon"
       x="-20"
       y="-20"
       width="40"
       height="40"
       id="use13" />
    <text
       x="0"
       y="25"
       font-family="Arial, sans-serif"
       font-size="12"
       fill="white"
       text-anchor="middle"
       id="text14">Public Voices</text>
  </g>
  <g
     id="metaCouncils"
     transform="translate(400,150)">
    <circle
       cx="0"
       cy="0"
       r="70"
       fill="url(#blueGradient)"
       filter="url(#shadow)"
       id="circle14" />
    <text
       x="0"
       y="95"
       font-family="Arial, sans-serif"
       font-size="16"
       fill="#2B4B8C"
       text-anchor="middle"
       font-weight="bold"
       id="text15">Meta-Councils</text>
    <use
       href="#councilIcon"
       x="-20"
       y="-20"
       width="40"
       height="40"
       id="use15" />
    <text
       x="0"
       y="25"
       font-family="Arial, sans-serif"
       font-size="12"
       fill="white"
       text-anchor="middle"
       id="text16">Expert Coordination</text>
  </g>
  <g
     id="powerAudits"
     transform="translate(620,180)">
    <circle
       cx="0"
       cy="0"
       r="70"
       fill="url(#goldGradient)"
       filter="url(#shadow)"
       id="circle16" />
    <text
       x="0"
       y="95"
       font-family="Arial, sans-serif"
       font-size="16"
       fill="#B8860B"
       text-anchor="middle"
       font-weight="bold"
       id="text17">Power Audits</text>
    <use
       href="#auditIcon"
       x="-20"
       y="-20"
       width="40"
       height="40"
       id="use17" />
    <text
       x="0"
       y="25"
       font-family="Arial, sans-serif"
       font-size="12"
       fill="white"
       text-anchor="middle"
       id="text18">Fairness Checks</text>
  </g>
  <g
     id="aiTools"
     transform="translate(400,400)">
    <circle
       cx="0"
       cy="0"
       r="70"
       fill="url(#greenGradient)"
       filter="url(#shadow)"
       id="circle18" />
    <text
       x="0"
       y="95"
       font-family="Arial, sans-serif"
       font-size="16"
       fill="#2D5F2D"
       text-anchor="middle"
       font-weight="bold"
       id="text19">Smart AI Tools</text>
    <use
       href="#aiIcon"
       x="-20"
       y="-20"
       width="40"
       height="40"
       id="use19" />
    <text
       x="0"
       y="25"
       font-family="Arial, sans-serif"
       font-size="12"
       fill="white"
       text-anchor="middle"
       id="text20">Pattern Insights</text>
  </g>
  <g
     id="sharedGoals"
     transform="translate(400,300)">
    <circle
       cx="0"
       cy="0"
       r="55"
       fill="white"
       stroke="#e5e7eb"
       stroke-width="2"
       filter="url(#shadow)"
       id="circle20" />
    <text
       x="0"
       y="9"
       font-family="Arial, sans-serif"
       font-size="14"
       fill="#333333"
       text-anchor="middle"
       font-weight="bold"
       id="text21">Shared Goals</text>
    <text
       x="0"
       y="29"
       font-family="Arial, sans-serif"
       font-size="12"
       fill="#666666"
       text-anchor="middle"
       id="text22">Aligned Action</text>
    <use
       href="#goalIcon"
       x="-15"
       y="-35"
       width="30"
       height="30"
       opacity="0.7"
       id="use22" />
  </g>
  <!-- Connection paths -->
  <g
     stroke-width="2"
     stroke-linecap="round"
     filter="url(#glow)"
     opacity="0.7"
     id="g29">
    <!-- Citizen Panels to Meta-Councils -->
    <path
       d="M235,180 Q300,140 340,150"
       stroke="#6B5CA5"
       fill="none"
       stroke-dasharray="0"
       id="path22" />
    <!-- Meta-Councils to Power Audits -->
    <path
       d="M460,150 Q530,140 560,180"
       stroke="#2B4B8C"
       fill="none"
       stroke-dasharray="0"
       id="path23" />
    <!-- Power Audits to AI Tools -->
    <path
       d="M620,240 Q620,320 460,400"
       stroke="#DAA520"
       fill="none"
       stroke-dasharray="0"
       id="path24" />
    <!-- AI Tools to Citizen Panels -->
    <path
       d="M340,400 Q260,340 180,240"
       stroke="#2D5F2D"
       fill="none"
       stroke-dasharray="0"
       id="path25" />
    <!-- All to Shared Goals -->
    <path
       d="M235,180 L365,280"
       stroke="#6B5CA5"
       fill="none"
       stroke-dasharray="4"
       id="path26" />
    <path
       d="M400,220 L400,245"
       stroke="#2B4B8C"
       fill="none"
       stroke-dasharray="4"
       id="path27" />
    <path
       d="M560,180 L435,280"
       stroke="#DAA520"
       fill="none"
       stroke-dasharray="4"
       id="path28" />
    <path
       d="M400,330 L400,355"
       stroke="#2D5F2D"
       fill="none"
       stroke-dasharray="4"
       id="path29" />
  </g>
  <!-- Arrows on paths -->
  <polygon
     points="340,150 325,140 331,158 "
     id="polygon29"
     style="opacity:0.8;fill:#333333"
     transform="rotate(135.60641,332.5,149)" />
  <polygon
     points="551,188 560,180 545,170 "
     id="polygon30"
     style="opacity:0.8;fill:#333333"
     transform="rotate(177.02619,555.5,179.07788)" />
  <polygon
     points="460,400 452,385 442,402 "
     id="polygon31"
     style="opacity:0.8;fill:#333333"
     transform="translate(4,6)" />
  <polygon
     points="174,225 180,240 193,230 "
     id="polygon32"
     style="opacity:0.8;fill:#333333"
     transform="rotate(-96.905815,183.34328,236.2321)" />
  <!-- Diagram title -->
  <text
     x="400"
     y="40"
     font-family="Arial, sans-serif"
     font-size="24"
     fill="#2B4B8C"
     text-anchor="middle"
     font-weight="bold"
     id="text32">Meta-Governance Flow</text>
  <text
     x="400"
     y="70"
     font-family="Arial, sans-serif"
     font-size="16"
     fill="#666666"
     text-anchor="middle"
     id="text33">How the system works together</text>
  <!-- Legend (2x2 grid instead of 1x4) -->
  <g
     transform="translate(40, 520)"
     id="g37">
    <rect
       x="0"
       y="0"
       width="720"
       height="60"
       rx="5"
       ry="5"
       fill="white"
       stroke="#e5e7eb"
       stroke-width="1"
       id="rect33" />
    <!-- Row 1 -->
    <circle
       cx="30"
       cy="15"
       r="10"
       fill="url(#purpleGradient)"
       id="circle33" />
    <text
       x="50"
       y="20"
       font-family="Arial, sans-serif"
       font-size="14"
       fill="#333"
       id="text34">People's voices shape decisions</text>
    <circle
       cx="330"
       cy="15"
       r="10"
       fill="url(#blueGradient)"
       id="circle34" />
    <text
       x="350"
       y="20"
       font-family="Arial, sans-serif"
       font-size="14"
       fill="#333"
       id="text35">Experts coordinate across domains</text>
    <!-- Row 2 -->
    <circle
       cx="30"
       cy="45"
       r="10"
       fill="url(#goldGradient)"
       id="circle35" />
    <text
       x="50"
       y="50"
       font-family="Arial, sans-serif"
       font-size="14"
       fill="#333"
       id="text36">Fairness is protected</text>
    <circle
       cx="330"
       cy="45"
       r="10"
       fill="url(#greenGradient)"
       id="circle36" />
    <text
       x="350"
       y="50"
       font-family="Arial, sans-serif"
       font-size="14"
       fill="#333"
       id="text37">AI assists humans</text>
  </g>
  <!-- Example application box -->
  <g
     transform="translate(640, 100)"
     id="g40">
    <rect
       x="0"
       y="0"
       width="140"
       height="70"
       rx="5"
       ry="5"
       fill="white"
       stroke="#e5e7eb"
       stroke-width="1"
       filter="url(#shadow)"
       id="rect37" />
    <text
       x="70"
       y="20"
       font-family="Arial, sans-serif"
       font-size="12"
       fill="#2B4B8C"
       text-anchor="middle"
       font-weight="bold"
       id="text38">Real Example</text>
    <text
       x="70"
       y="40"
       font-family="Arial, sans-serif"
       font-size="10"
       fill="#333"
       text-anchor="middle"
       id="text39">River Valley Flood Response</text>
    <text
       x="70"
       y="55"
       font-family="Arial, sans-serif"
       font-size="10"
       fill="#333"
       text-anchor="middle"
       id="text40">Coordination Saved Lives</text>
  </g>
</svg>
